<mxfile host="app.diagrams.net" modified="2022-09-14T13:01:54.312Z" agent="5.0 (Windows)" etag="7leIFwV952jak2o2Lfda" version="20.3.0" type="github">
  <diagram id="C5RBs43oDa-KdzZeNtuy" name="Page-1">
    <mxGraphModel dx="1038" dy="536" grid="1" gridSize="10" guides="1" tooltips="1" connect="1" arrows="1" fold="1" page="1" pageScale="1" pageWidth="827" pageHeight="1169" math="0" shadow="0">
      <root>
        <mxCell id="WIyWlLk6GJQsqaUBKTNV-0" />
        <mxCell id="WIyWlLk6GJQsqaUBKTNV-1" parent="WIyWlLk6GJQsqaUBKTNV-0" />
        <mxCell id="WIyWlLk6GJQsqaUBKTNV-2" value="" style="rounded=0;html=1;jettySize=auto;orthogonalLoop=1;fontSize=11;endArrow=block;endFill=0;endSize=8;strokeWidth=1;shadow=0;labelBackgroundColor=none;edgeStyle=orthogonalEdgeStyle;" parent="WIyWlLk6GJQsqaUBKTNV-1" source="WIyWlLk6GJQsqaUBKTNV-3" target="WIyWlLk6GJQsqaUBKTNV-6" edge="1">
          <mxGeometry relative="1" as="geometry" />
        </mxCell>
        <mxCell id="WIyWlLk6GJQsqaUBKTNV-3" value="&amp;lt;SID&amp;gt; &amp;amp; type are passed as extravers" style="rounded=1;whiteSpace=wrap;html=1;fontSize=12;glass=0;strokeWidth=1;shadow=0;" parent="WIyWlLk6GJQsqaUBKTNV-1" vertex="1">
          <mxGeometry x="160" y="80" width="120" height="40" as="geometry" />
        </mxCell>
        <mxCell id="WIyWlLk6GJQsqaUBKTNV-5" value="S4HANA" style="edgeStyle=orthogonalEdgeStyle;rounded=0;html=1;jettySize=auto;orthogonalLoop=1;fontSize=11;endArrow=block;endFill=0;endSize=8;strokeWidth=1;shadow=0;labelBackgroundColor=none;" parent="WIyWlLk6GJQsqaUBKTNV-1" source="WIyWlLk6GJQsqaUBKTNV-6" target="WIyWlLk6GJQsqaUBKTNV-7" edge="1">
          <mxGeometry y="10" relative="1" as="geometry">
            <mxPoint as="offset" />
          </mxGeometry>
        </mxCell>
        <mxCell id="WIyWlLk6GJQsqaUBKTNV-6" value="UserType" style="rhombus;whiteSpace=wrap;html=1;shadow=0;fontFamily=Helvetica;fontSize=12;align=center;strokeWidth=1;spacing=6;spacingTop=-4;" parent="WIyWlLk6GJQsqaUBKTNV-1" vertex="1">
          <mxGeometry x="170" y="170" width="100" height="80" as="geometry" />
        </mxCell>
        <mxCell id="WIyWlLk6GJQsqaUBKTNV-7" value="&lt;div&gt;&lt;font color=&quot;#75ACFF&quot;&gt;&lt;font color=&quot;#513DFF&quot;&gt;&amp;nbsp;&amp;nbsp;&amp;nbsp;&amp;nbsp;&amp;nbsp;&amp;nbsp;&amp;nbsp;&amp;nbsp;&amp;nbsp;&amp;nbsp;&amp;nbsp;&amp;nbsp;&amp;nbsp;&amp;nbsp;&amp;nbsp;&amp;nbsp; USER&lt;/font&gt;:&amp;nbsp;&amp;nbsp;&amp;nbsp;&amp;nbsp;&amp;nbsp; &lt;/font&gt;&amp;lt;sid&amp;gt;adm,&amp;lt;sid&amp;gt;crypt&lt;font color=&quot;#7936FF&quot;&gt;&lt;br&gt;&lt;/font&gt;&lt;/div&gt;&lt;div&gt;&lt;font color=&quot;#7936FF&quot;&gt;GROUP&lt;/font&gt;:&amp;nbsp;&amp;nbsp; &amp;lt;sid&amp;gt;shm&lt;br&gt;&lt;/div&gt;" style="rounded=1;whiteSpace=wrap;html=1;fontSize=12;glass=0;strokeWidth=1;shadow=0;" parent="WIyWlLk6GJQsqaUBKTNV-1" vertex="1">
          <mxGeometry x="400" y="160" width="80" height="100" as="geometry" />
        </mxCell>
        <mxCell id="FwgK8M5c50l9ff9xIDoa-0" value="&lt;div&gt;systems:&lt;/div&gt;&lt;div&gt;managed_systems:&lt;/div&gt;&amp;nbsp;&amp;nbsp;&amp;nbsp; - sapid: S4B&lt;br&gt;&amp;nbsp;&amp;nbsp;&amp;nbsp;&amp;nbsp;&amp;nbsp; type: S4HANA&lt;br&gt;&amp;nbsp;&amp;nbsp;&amp;nbsp; " style="whiteSpace=wrap;html=1;" vertex="1" parent="WIyWlLk6GJQsqaUBKTNV-1">
          <mxGeometry x="370" y="60" width="220" height="90" as="geometry" />
        </mxCell>
        <mxCell id="FwgK8M5c50l9ff9xIDoa-1" value="uid counter+1" style="edgeStyle=orthogonalEdgeStyle;rounded=0;html=1;jettySize=auto;orthogonalLoop=1;fontSize=11;endArrow=block;endFill=0;endSize=8;strokeWidth=1;shadow=0;labelBackgroundColor=none;exitX=1;exitY=0.5;exitDx=0;exitDy=0;" edge="1" parent="WIyWlLk6GJQsqaUBKTNV-1" source="WIyWlLk6GJQsqaUBKTNV-7">
          <mxGeometry x="-0.2727" y="20" relative="1" as="geometry">
            <mxPoint as="offset" />
            <mxPoint x="500" y="210" as="sourcePoint" />
            <mxPoint x="600" y="210" as="targetPoint" />
            <Array as="points">
              <mxPoint x="540" y="210" />
              <mxPoint x="540" y="210" />
            </Array>
          </mxGeometry>
        </mxCell>
        <mxCell id="FwgK8M5c50l9ff9xIDoa-9" style="edgeStyle=orthogonalEdgeStyle;rounded=0;orthogonalLoop=1;jettySize=auto;html=1;exitX=1;exitY=0.5;exitDx=0;exitDy=0;fontColor=#7936FF;entryX=0;entryY=0.444;entryDx=0;entryDy=0;entryPerimeter=0;" edge="1" parent="WIyWlLk6GJQsqaUBKTNV-1" source="FwgK8M5c50l9ff9xIDoa-2" target="FwgK8M5c50l9ff9xIDoa-10">
          <mxGeometry relative="1" as="geometry">
            <mxPoint x="900" y="210" as="targetPoint" />
          </mxGeometry>
        </mxCell>
        <mxCell id="FwgK8M5c50l9ff9xIDoa-2" value="current_uid:1202" style="rounded=1;whiteSpace=wrap;html=1;fontColor=#7936FF;" vertex="1" parent="WIyWlLk6GJQsqaUBKTNV-1">
          <mxGeometry x="780" y="180" width="120" height="60" as="geometry" />
        </mxCell>
        <mxCell id="FwgK8M5c50l9ff9xIDoa-3" value="USER to be &lt;br&gt;checked&lt;br&gt; in ad " style="rhombus;whiteSpace=wrap;html=1;fontColor=#7936FF;" vertex="1" parent="WIyWlLk6GJQsqaUBKTNV-1">
          <mxGeometry x="600" y="170" width="140" height="80" as="geometry" />
        </mxCell>
        <mxCell id="FwgK8M5c50l9ff9xIDoa-7" value="Text" style="text;html=1;strokeColor=none;fillColor=none;align=center;verticalAlign=middle;whiteSpace=wrap;rounded=0;fontColor=#7936FF;" vertex="1" parent="WIyWlLk6GJQsqaUBKTNV-1">
          <mxGeometry x="380" y="280" width="60" height="30" as="geometry" />
        </mxCell>
        <mxCell id="FwgK8M5c50l9ff9xIDoa-10" value="user created &amp;amp; uid assigned" style="ellipse;whiteSpace=wrap;html=1;aspect=fixed;fontColor=#7936FF;" vertex="1" parent="WIyWlLk6GJQsqaUBKTNV-1">
          <mxGeometry x="940" y="170" width="90" height="90" as="geometry" />
        </mxCell>
        <mxCell id="FwgK8M5c50l9ff9xIDoa-12" value="initial_uid:1201" style="text;html=1;align=center;verticalAlign=middle;resizable=0;points=[];autosize=1;strokeColor=none;fillColor=none;fontColor=#7936FF;" vertex="1" parent="WIyWlLk6GJQsqaUBKTNV-1">
          <mxGeometry x="480" y="210" width="100" height="30" as="geometry" />
        </mxCell>
        <mxCell id="FwgK8M5c50l9ff9xIDoa-14" value="" style="endArrow=classic;html=1;rounded=0;fontColor=#7936FF;exitX=1;exitY=0.5;exitDx=0;exitDy=0;" edge="1" parent="WIyWlLk6GJQsqaUBKTNV-1" source="WIyWlLk6GJQsqaUBKTNV-6">
          <mxGeometry width="50" height="50" relative="1" as="geometry">
            <mxPoint x="480" y="320" as="sourcePoint" />
            <mxPoint x="400" y="350" as="targetPoint" />
          </mxGeometry>
        </mxCell>
        <mxCell id="FwgK8M5c50l9ff9xIDoa-15" value="&lt;div&gt;&lt;font color=&quot;#75ACFF&quot;&gt;&lt;font color=&quot;#513DFF&quot;&gt;&amp;nbsp;&amp;nbsp;&amp;nbsp;&amp;nbsp;&amp;nbsp;&amp;nbsp;&amp;nbsp;&amp;nbsp;&amp;nbsp;&amp;nbsp;&amp;nbsp;&amp;nbsp;&amp;nbsp;&amp;nbsp;&amp;nbsp;&amp;nbsp; USER&lt;/font&gt;:&amp;nbsp;&amp;nbsp;&amp;nbsp;&amp;nbsp;&amp;nbsp; &lt;/font&gt;&amp;lt;sid&amp;gt;adm,&lt;/div&gt;&lt;div&gt;syb&amp;lt;sid&amp;gt;&lt;font color=&quot;#7936FF&quot;&gt;&lt;br&gt;&lt;/font&gt;&lt;/div&gt;&lt;div&gt;&lt;font color=&quot;#7936FF&quot;&gt;GROUP&lt;/font&gt;:&amp;nbsp;&amp;nbsp; &amp;lt;sid&amp;gt;shm&lt;br&gt;&lt;/div&gt;" style="rounded=1;whiteSpace=wrap;html=1;fontSize=12;glass=0;strokeWidth=1;shadow=0;" vertex="1" parent="WIyWlLk6GJQsqaUBKTNV-1">
          <mxGeometry x="400" y="310" width="80" height="100" as="geometry" />
        </mxCell>
        <mxCell id="FwgK8M5c50l9ff9xIDoa-16" value="&lt;b&gt;grc&lt;/b&gt;" style="text;html=1;strokeColor=none;fillColor=none;align=center;verticalAlign=middle;whiteSpace=wrap;rounded=0;fontColor=#7936FF;rotation=270;" vertex="1" parent="WIyWlLk6GJQsqaUBKTNV-1">
          <mxGeometry x="320" y="260" width="60" height="30" as="geometry" />
        </mxCell>
        <mxCell id="FwgK8M5c50l9ff9xIDoa-17" value="Yes" style="rounded=0;html=1;jettySize=auto;orthogonalLoop=1;fontSize=11;endArrow=block;endFill=0;endSize=8;strokeWidth=1;shadow=0;labelBackgroundColor=none;edgeStyle=orthogonalEdgeStyle;exitX=1;exitY=0.5;exitDx=0;exitDy=0;" edge="1" parent="WIyWlLk6GJQsqaUBKTNV-1" source="FwgK8M5c50l9ff9xIDoa-15" target="FwgK8M5c50l9ff9xIDoa-3">
          <mxGeometry y="20" relative="1" as="geometry">
            <mxPoint as="offset" />
            <mxPoint x="530" y="340" as="sourcePoint" />
            <mxPoint x="650" y="270" as="targetPoint" />
            <Array as="points">
              <mxPoint x="580" y="360" />
              <mxPoint x="580" y="210" />
            </Array>
          </mxGeometry>
        </mxCell>
        <mxCell id="FwgK8M5c50l9ff9xIDoa-18" value="uid counter+1" style="text;html=1;align=center;verticalAlign=middle;resizable=0;points=[];autosize=1;strokeColor=none;fillColor=none;fontColor=#7936FF;" vertex="1" parent="WIyWlLk6GJQsqaUBKTNV-1">
          <mxGeometry x="485" y="325" width="90" height="30" as="geometry" />
        </mxCell>
        <mxCell id="FwgK8M5c50l9ff9xIDoa-25" value="no" style="text;html=1;align=center;verticalAlign=middle;resizable=0;points=[];autosize=1;strokeColor=none;fillColor=none;fontColor=#7936FF;" vertex="1" parent="WIyWlLk6GJQsqaUBKTNV-1">
          <mxGeometry x="730" y="170" width="40" height="30" as="geometry" />
        </mxCell>
        <mxCell id="FwgK8M5c50l9ff9xIDoa-26" value="username check(a)" style="rhombus;whiteSpace=wrap;html=1;fontColor=#7936FF;" vertex="1" parent="WIyWlLk6GJQsqaUBKTNV-1">
          <mxGeometry x="630" y="320" width="80" height="80" as="geometry" />
        </mxCell>
        <mxCell id="FwgK8M5c50l9ff9xIDoa-27" value="" style="endArrow=classic;html=1;rounded=0;fontColor=#7936FF;exitX=0.5;exitY=1;exitDx=0;exitDy=0;entryX=0.5;entryY=0;entryDx=0;entryDy=0;" edge="1" parent="WIyWlLk6GJQsqaUBKTNV-1" source="FwgK8M5c50l9ff9xIDoa-3" target="FwgK8M5c50l9ff9xIDoa-26">
          <mxGeometry width="50" height="50" relative="1" as="geometry">
            <mxPoint x="480" y="320" as="sourcePoint" />
            <mxPoint x="530" y="270" as="targetPoint" />
          </mxGeometry>
        </mxCell>
        <mxCell id="FwgK8M5c50l9ff9xIDoa-28" value="yes" style="text;html=1;strokeColor=none;fillColor=none;align=center;verticalAlign=middle;whiteSpace=wrap;rounded=0;fontColor=#7936FF;" vertex="1" parent="WIyWlLk6GJQsqaUBKTNV-1">
          <mxGeometry x="660" y="270" width="60" height="30" as="geometry" />
        </mxCell>
        <mxCell id="FwgK8M5c50l9ff9xIDoa-30" style="edgeStyle=orthogonalEdgeStyle;rounded=0;orthogonalLoop=1;jettySize=auto;html=1;fontColor=#7936FF;entryX=0;entryY=0.5;entryDx=0;entryDy=0;" edge="1" parent="WIyWlLk6GJQsqaUBKTNV-1" target="FwgK8M5c50l9ff9xIDoa-2">
          <mxGeometry relative="1" as="geometry">
            <mxPoint x="790" y="219.96000000000004" as="targetPoint" />
            <mxPoint x="740" y="214" as="sourcePoint" />
            <Array as="points">
              <mxPoint x="740" y="210" />
            </Array>
          </mxGeometry>
        </mxCell>
        <mxCell id="FwgK8M5c50l9ff9xIDoa-31" value="doesn&#39;t exist" style="text;html=1;strokeColor=none;fillColor=none;align=center;verticalAlign=middle;whiteSpace=wrap;rounded=0;fontColor=#7936FF;" vertex="1" parent="WIyWlLk6GJQsqaUBKTNV-1">
          <mxGeometry x="700" y="320" width="60" height="30" as="geometry" />
        </mxCell>
        <mxCell id="FwgK8M5c50l9ff9xIDoa-32" style="edgeStyle=orthogonalEdgeStyle;rounded=0;orthogonalLoop=1;jettySize=auto;html=1;fontColor=#7936FF;" edge="1" parent="WIyWlLk6GJQsqaUBKTNV-1">
          <mxGeometry relative="1" as="geometry">
            <mxPoint x="760" y="360" as="targetPoint" />
            <mxPoint x="710" y="360" as="sourcePoint" />
            <Array as="points">
              <mxPoint x="760" y="360" />
            </Array>
          </mxGeometry>
        </mxCell>
        <mxCell id="FwgK8M5c50l9ff9xIDoa-33" value="uid check(b)" style="rhombus;whiteSpace=wrap;html=1;fontColor=#7936FF;" vertex="1" parent="WIyWlLk6GJQsqaUBKTNV-1">
          <mxGeometry x="760" y="320" width="80" height="80" as="geometry" />
        </mxCell>
        <mxCell id="FwgK8M5c50l9ff9xIDoa-34" style="edgeStyle=orthogonalEdgeStyle;rounded=0;orthogonalLoop=1;jettySize=auto;html=1;fontColor=#7936FF;" edge="1" parent="WIyWlLk6GJQsqaUBKTNV-1">
          <mxGeometry relative="1" as="geometry">
            <mxPoint x="930" y="360" as="targetPoint" />
            <mxPoint x="850" y="360" as="sourcePoint" />
            <Array as="points">
              <mxPoint x="840" y="360" />
              <mxPoint x="840" y="360" />
            </Array>
          </mxGeometry>
        </mxCell>
        <mxCell id="FwgK8M5c50l9ff9xIDoa-35" value="available uid" style="text;html=1;align=center;verticalAlign=middle;resizable=0;points=[];autosize=1;strokeColor=none;fillColor=none;fontColor=#7936FF;" vertex="1" parent="WIyWlLk6GJQsqaUBKTNV-1">
          <mxGeometry x="840" y="320" width="90" height="30" as="geometry" />
        </mxCell>
        <mxCell id="FwgK8M5c50l9ff9xIDoa-36" value="user created &amp;amp; uid assigned" style="ellipse;whiteSpace=wrap;html=1;aspect=fixed;fontColor=#7936FF;" vertex="1" parent="WIyWlLk6GJQsqaUBKTNV-1">
          <mxGeometry x="930" y="310" width="90" height="90" as="geometry" />
        </mxCell>
        <mxCell id="FwgK8M5c50l9ff9xIDoa-37" value="dynamically assigned uid within range " style="text;html=1;strokeColor=none;fillColor=none;align=center;verticalAlign=middle;whiteSpace=wrap;rounded=0;fontColor=#7936FF;" vertex="1" parent="WIyWlLk6GJQsqaUBKTNV-1">
          <mxGeometry x="840" y="370" width="90" height="60" as="geometry" />
        </mxCell>
        <mxCell id="FwgK8M5c50l9ff9xIDoa-38" value="&lt;b&gt;&lt;font color=&quot;#FF0000&quot;&gt;old&lt;/font&gt;&lt;/b&gt;" style="ellipse;whiteSpace=wrap;html=1;fontColor=#7936FF;" vertex="1" parent="WIyWlLk6GJQsqaUBKTNV-1">
          <mxGeometry x="790" y="65" width="120" height="80" as="geometry" />
        </mxCell>
        <mxCell id="FwgK8M5c50l9ff9xIDoa-39" value="&lt;font color=&quot;#0000CC&quot;&gt;new&lt;/font&gt;" style="ellipse;whiteSpace=wrap;html=1;fontColor=#FF0000;" vertex="1" parent="WIyWlLk6GJQsqaUBKTNV-1">
          <mxGeometry x="790" y="260" width="120" height="50" as="geometry" />
        </mxCell>
        <mxCell id="FwgK8M5c50l9ff9xIDoa-42" value="" style="endArrow=classic;startArrow=classic;html=1;rounded=0;fontColor=#0000CC;" edge="1" parent="WIyWlLk6GJQsqaUBKTNV-1">
          <mxGeometry width="50" height="50" relative="1" as="geometry">
            <mxPoint x="680" y="50" as="sourcePoint" />
            <mxPoint x="980" y="50" as="targetPoint" />
            <Array as="points">
              <mxPoint x="780" y="50" />
            </Array>
          </mxGeometry>
        </mxCell>
        <mxCell id="FwgK8M5c50l9ff9xIDoa-43" value="" style="endArrow=classic;startArrow=classic;html=1;rounded=0;fontColor=#0000CC;" edge="1" parent="WIyWlLk6GJQsqaUBKTNV-1">
          <mxGeometry width="50" height="50" relative="1" as="geometry">
            <mxPoint x="690" y="450" as="sourcePoint" />
            <mxPoint x="990" y="450" as="targetPoint" />
            <Array as="points" />
          </mxGeometry>
        </mxCell>
        <mxCell id="FwgK8M5c50l9ff9xIDoa-44" value="&lt;h1&gt;Python Module&lt;br&gt;&lt;/h1&gt;&lt;p&gt;custom module need to be created&lt;br&gt;&lt;/p&gt;" style="text;html=1;strokeColor=none;fillColor=none;spacing=5;spacingTop=-20;whiteSpace=wrap;overflow=hidden;rounded=0;fontColor=#0000CC;" vertex="1" parent="WIyWlLk6GJQsqaUBKTNV-1">
          <mxGeometry x="610" y="465" width="190" height="75" as="geometry" />
        </mxCell>
      </root>
    </mxGraphModel>
  </diagram>
</mxfile>
